<svg width="15" height="10" viewBox="0 0 15 10" xmlns="http://www.w3.org/2000/svg">
    <g fill-rule="nonzero" fill="none">
        <path d="M5 10H.259A.261.261 0 0 1 0 9.737V.263C0 .118.116 0 .259 0H5v10z" fill="#464655"/>
        <path fill="#FF4B55" d="M5 0h5v10H5z"/>
        <path d="M14.741 10H10V0h4.741A.26.26 0 0 1 15 .263v9.474a.26.26 0 0 1-.259.263z" fill="#73AF00"/>
        <g fill="#F5F5F5">
            <path d="M8.175 5.516h-1.35l.075-.153h1.2zM8.175 4.295h-1.35l.075.153h1.2z"/>
            <path d="M7.875 4.371h-.75l.15-.152h.45zM6.9 5.135h1v1h-1z"/>
            <path d="M6.9 4.906h1v1h-1z"/>
            <path d="M6.9 4.524h1v1h-1z"/>
            <path d="M6.9 4.753h1v1h-1z"/>
            <path d="M7.875 5.135h1v1h-1z"/>
            <path d="M7.875 4.906h1v1h-1z"/>
            <path d="M7.875 4.524h1v1h-1z"/>
            <path d="M7.875 4.753h1v1h-1z"/>
            <path d="M6.975 3.914h1v1h-1zM7.125 3.837h-.15v-.076c0-.042.034-.077.075-.077.041 0 .075.035.075.077v.076z"/>
            <path d="M7.875 3.914h1v1h-1zM8.025 3.837h-.15v-.076c0-.042.034-.077.075-.077.041 0 .075.035.075.077v.076zM7.5 4.524c-.166 0-.3.137-.3.305v.458h.6v-.458a.303.303 0 0 0-.3-.305zM7.015 5.005l-.416-.485a.075.075 0 0 0 .005-.025.076.076 0 1 0-.076.077l.013-.003.043.05-.209.487.229.229.198-.461.155.18.058-.05zm-.372.159-.182-.183.082-.192.183.183-.083.192z"/>
            <path d="m8.056 5.054.155-.18.198.46.229-.228-.209-.487.043-.05c.005 0 .009.003.013.003a.076.076 0 1 0-.076-.077c0 .009.002.017.005.025l-.416.485.058.05zm.231-.082.183-.183.082.192-.182.183-.083-.192zM7.585 3.774a.1.1 0 0 1-.058-.041.513.513 0 0 1-.027-.049.513.513 0 0 1-.027.049.1.1 0 0 1-.058.041.304.304 0 0 0-.204.368h.578a.304.304 0 0 0-.204-.368zM5.781 4.896a1.791 1.791 0 0 1 .018-.432l.068.05a1.712 1.712 0 0 0-.009.406l.159.048a1.548 1.548 0 0 1-.012-.324.513.513 0 0 1 .148.331c0 .004.24-.362-.197-.766l-.003.172-.252-.003a.047.047 0 0 0-.046.039 1.95 1.95 0 0 0-.027.432l.153.047z"/>
            <path d="M6.447 3.363a.077.077 0 0 0 .013-.107.074.074 0 0 0-.105-.013c-.34.266-.572.633-.673 1.043l.155.002c.097-.363.307-.687.61-.925z"/>
            <path d="M6.346 3.554a1.676 1.676 0 0 0-.37.561.848.848 0 0 1 .116.117c.075-.212.196-.406.36-.57.029-.029.03-.077 0-.107a.074.074 0 0 0-.106-.001zM6.086 5.753a1.772 1.772 0 0 1-.25-.54l.088.033c.054.178.137.344.243.492l.165-.03a1.545 1.545 0 0 1-.226-.394l.098.036c.056.125.127.24.212.342l.173-.032a1.296 1.296 0 0 1-.178-.235l-.1-.203a.25.25 0 0 0-.152-.13l-.236-.073-.054-.016-.079-.024-.156-.048-.084-.026.052.158a.155.155 0 0 0 .064.083c.048.23.136.446.258.637l.162-.03zM9.047 4.38l-.003-.17c-.438.403-.197.769-.197.765 0-.124.065-.237.148-.33a1.373 1.373 0 0 1-.012.323l.159-.048a1.722 1.722 0 0 0-.01-.405c.024-.02.047-.036.069-.051a1.785 1.785 0 0 1 .017.432l.154-.047a1.957 1.957 0 0 0-.027-.432.047.047 0 0 0-.046-.039l-.252.003z"/>
            <path d="m9.163 4.288.155-.002a1.9 1.9 0 0 0-.673-1.043.074.074 0 0 0-.105.013.077.077 0 0 0 .013.107c.303.238.513.562.61.925z"/>
            <path d="M9.024 4.115a1.677 1.677 0 0 0-.37-.561.074.074 0 0 0-.106 0 .077.077 0 0 0 0 .109c.164.163.285.357.36.57a.844.844 0 0 1 .116-.118zM9.366 4.93l-.156.049-.079.024-.054.016-.236.073a.251.251 0 0 0-.152.13l-.1.202c-.05.086-.11.165-.178.235l.173.033c.085-.102.156-.217.212-.342l.098-.036a1.546 1.546 0 0 1-.226.393l.165.031c.106-.148.189-.314.243-.492l.087-.033a1.772 1.772 0 0 1-.249.54l.162.03c.122-.192.21-.407.258-.638a.155.155 0 0 0 .064-.082l.052-.158-.084.026zM8.282 5.775l-.004.003c-.218.171-.49.272-.778.272-.288 0-.56-.1-.778-.272l-.003-.003a.118.118 0 0 0-.113-.038l-.756.16.168.15a.22.22 0 0 0 .16.055c.135.137.29.253.46.344l-.049.092a1.875 1.875 0 0 0 1.822 0l-.05-.092c.171-.09.326-.207.461-.344a.22.22 0 0 0 .16-.055l.168-.15-.756-.16a.118.118 0 0 0-.112.038zM6.71 6.31a1.74 1.74 0 0 1-.372-.267l.073-.036c.101.092.213.172.335.236l-.036.067zm1.952-.267a1.743 1.743 0 0 1-.372.267l-.036-.067c.122-.064.234-.144.335-.236l.073.036zM7.5 6.279c-.357 0-.684-.13-.942-.342l.075-.036c.243.19.545.302.867.302.322 0 .624-.112.867-.302l.075.036a1.472 1.472 0 0 1-.942.342z"/>
            <path d="M6.677 5.666c.032.028.066.054.1.079h1.445c.035-.025.069-.05.1-.079l-.072-.074h-1.5l-.073.074z"/>
        </g>
    </g>
</svg>
