<svg width="15" height="10" viewBox="0 0 15 10" xmlns="http://www.w3.org/2000/svg">
    <g fill-rule="nonzero" fill="none">
        <path d="M14.741 10H.26A.261.261 0 0 1 0 9.737V.263C0 .118.116 0 .259 0H14.74c.143 0 .259.118.259.263v9.474a.261.261 0 0 1-.259.263z" fill="#FF4B55"/>
        <path d="M5.431 0H.259A.26.26 0 0 0 0 .263v9.474c0 .145.116.263.259.263H5.43V0z" fill="#73AF00"/>
        <ellipse fill="#FFE15A" cx="5.433" cy="5" rx="2.326" ry="2.366"/>
        <path d="M6.209 4.21v1.053c0 .435-.348.79-.776.79a.784.784 0 0 1-.776-.79V4.211H6.21m.259-.527h-2.07a.261.261 0 0 0-.258.263v1.316c0 .727.579 1.316 1.293 1.316s1.293-.59 1.293-1.316V3.947a.26.26 0 0 0-.258-.263z" fill="#FF4B55"/>
        <path d="M6.209 4.21v1.053c0 .435-.348.79-.776.79a.784.784 0 0 1-.776-.79V4.211H6.21" fill="#F5F5F5"/>
        <g transform="translate(4.267 3.816)" fill="#FFE15A">
            <circle cx=".129" cy=".132" r="1"/>
            <circle cx="2.198" cy=".132" r="1"/>
            <circle cx=".129" cy="1.184" r="1"/>
            <circle cx="2.198" cy="1.184" r="1"/>
            <circle cx="1.164" cy=".132" r="1"/>
            <circle cx="1.94" cy="2.155" r="1"/>
            <circle cx=".403" cy="2.155" r="1"/>
        </g>
        <g fill="#41479B">
            <path d="M5.6 4.933v.227c0 .094-.075.17-.167.17a.169.169 0 0 1-.167-.17v-.227H5.6M5.6 4.396v.227c0 .093-.075.17-.167.17a.169.169 0 0 1-.167-.17v-.227H5.6M5.6 5.476v.227c0 .093-.075.17-.167.17a.169.169 0 0 1-.167-.17v-.227H5.6M6.05 4.933v.227c0 .094-.075.17-.167.17a.169.169 0 0 1-.167-.17v-.227h.334M5.15 4.933v.227c0 .094-.075.17-.167.17a.169.169 0 0 1-.167-.17v-.227h.334"/>
        </g>
    </g>
</svg>
