<svg width="15" height="10" viewBox="0 0 15 10" xmlns="http://www.w3.org/2000/svg">
    <g fill-rule="nonzero" fill="none">
        <path d="M14.741 0H.26A.26.26 0 0 0 0 .263v9.474c0 .145.116.263.259.263H14.74A.261.261 0 0 0 15 9.737V.263A.261.261 0 0 0 14.741 0z" fill="#FFD250"/>
        <path d="M5.431 1.053v7.894c0 .146.116.264.259.264h8.276a.261.261 0 0 0 .258-.264V1.053a.261.261 0 0 0-.258-.264H5.69a.261.261 0 0 0-.259.264z" fill="#963C3C"/>
        <path d="M2.716.79H1.034a.261.261 0 0 0-.258.263v7.894c0 .146.116.264.258.264h1.682V.789z" fill="#5AA587"/>
        <path d="M4.397.79H2.716v8.42h1.68a.261.261 0 0 0 .26-.263V1.053a.26.26 0 0 0-.26-.264z" fill="#FF7350"/>
        <g fill="#FFD250">
            <path d="M11.53 7.109c-.009-.06.042-.135.12-.244a.906.906 0 0 0 .081-.124h-.025c-.043.002-.109.005-.166-.06a.125.125 0 0 1-.032-.092c.005-.07.061-.14.097-.177a1.908 1.908 0 0 1-.258-.213.69.69 0 0 0-.52-.226c-.017.194.082.322.187.457.03.04.062.08.09.121.138.204.11.598.092.64-.02.047-.13.151-.28.131a.262.262 0 0 0-.198.059.128.128 0 0 0-.048.094c0 .002 0 .013.004.015.02.012.096-.012.15-.042a.04.04 0 0 1 .045.006c.106.101.213.014.225.004a.04.04 0 0 1 .05-.001c.11.089.223-.008.227-.013a.04.04 0 0 1 .048-.003c.047.032.09.04.129.027a.096.096 0 0 0 .053-.044c.001-.016-.02-.1-.035-.156a1.87 1.87 0 0 1-.036-.16z"/>
            <path d="M12.706 3.38c-.032-.002-.056.005-.072.021-.03.03-.028.084-.028.085a.041.041 0 0 1-.012.031.039.039 0 0 1-.032.01c-.06-.007-.146-.07-.308-.19-.256-.192-.644-.48-1.014-.528-.43-.056-.812.084-.91.33-.107.276.123.527.125.53a.04.04 0 0 1 .006.046.208.208 0 0 0 .027.25.143.143 0 0 1 .059-.082c.064-.04.149-.007.265.038.069.026.147.056.238.08.233.057.518.005.769-.04.089-.017.174-.032.254-.042.2-.026.4.064.456.205.027.069.041.207-.163.358-.368.272-2.046.147-2.145.139h-.009a.36.36 0 0 0 .099.089.04.04 0 0 1 .029.043.04.04 0 0 1-.039.036l-.172.002.016.169a.04.04 0 0 1-.046.044c-.006-.002-.155-.026-.257-.084l-.194.125a.04.04 0 0 1-.034.004.04.04 0 0 1-.025-.024l-.074-.205-.087.178a.04.04 0 0 1-.034.023.038.038 0 0 1-.036-.02l-.075-.121a.779.779 0 0 1-.146.147.039.039 0 0 1-.035.005.04.04 0 0 1-.025-.026l-.04-.127a1.006 1.006 0 0 1-.138.15.039.039 0 0 1-.041.005A.04.04 0 0 1 8.834 5l-.013-.204a1.17 1.17 0 0 1-.14.065.04.04 0 0 1-.043-.013.04.04 0 0 1-.004-.046.963.963 0 0 0 .122-.31c-.04.05-.098.097-.16.15-.136.111-.304.25-.427.494a.949.949 0 0 0-.04.743c.094.236.295.412.596.525a.661.661 0 0 1-.019-.13c-.004-.21.039-.4.04-.409a.04.04 0 0 1 .048-.03.04.04 0 0 1 .03.049c0 .001-.042.19-.039.389.002.097.043.218.083.334.053.155.108.314.084.449-.032.183-.256.23-.464.194a.172.172 0 0 0-.151.041.186.186 0 0 0-.054.153c.003.027.013.033.016.035.025.013.084-.005.116-.022a.04.04 0 0 1 .048.009c.083.095.195 0 .2-.004a.04.04 0 0 1 .054.003.14.14 0 0 0 .102.052c.068.004.132-.057.133-.058a.04.04 0 0 1 .044-.008c.13.061.199.026.202.024.113-.098.048-.332.047-.334a.04.04 0 0 1 .03-.05.465.465 0 0 0 .29-.21c-.079-.001-.141-.03-.178-.088-.059-.094-.03-.236.073-.362.176-.214.284-.649.268-.826a.04.04 0 0 1 .036-.044.04.04 0 0 1 .043.037c.014.155-.054.476-.18.719.159-.045.304-.11.455-.18.15-.07.306-.143.493-.202.316-.1.594-.031.828.207.114.115.237.2.38.298.064.042.129.087.197.137.184.135.18.247.177.367 0 .036-.002.074.002.114.02.194-.132.224-.205.24a.594.594 0 0 0-.063.013c-.074.015-.186.038-.213.135-.005.017-.003.023-.003.023.011.005.072-.009.12-.031a.039.039 0 0 1 .032 0 .04.04 0 0 1 .022.024c.014.041.036.049.043.051.05.016.132-.03.156-.049a.04.04 0 0 1 .05.003c.04.038.079.055.113.05.045-.006.073-.05.073-.05a.04.04 0 0 1 .03-.019.04.04 0 0 1 .033.013s.035.038.106.06c.047.015.058-.002.062-.008.02-.029.013-.103-.025-.152a.331.331 0 0 1-.06-.248.27.27 0 0 1 .122-.188c.123-.079.15-.164.143-.18-.003-.002-.016-.004-.027-.005-.054-.007-.146-.02-.24-.196-.083-.156-.002-.403.09-.689.048-.145.097-.294.127-.441.083-.407-.179-.73-.181-.733a.04.04 0 0 1 .003-.055c.184-.175.262-.338.234-.483-.029-.151-.173-.257-.287-.301-.143-.056-.403-.024-.655.006-.21.025-.409.05-.537.022a.21.21 0 0 1-.144-.094.227.227 0 0 1-.03-.119.269.269 0 0 0-.107.085.04.04 0 0 1-.064.001.184.184 0 0 1-.039-.14.3.3 0 0 1 .084-.156c-.148-.053-.26.073-.266.079a.04.04 0 0 1-.05.007.255.255 0 0 1-.113-.222.226.226 0 0 1 .12-.197.166.166 0 0 1 .142-.015c.042.016.072.05.09.078a.324.324 0 0 0 .059-.172.04.04 0 0 1 .012-.028.037.037 0 0 1 .03-.011.275.275 0 0 1 .216.102c.068.088.074.21.07.285.15-.078.131-.257.13-.266a.04.04 0 0 1 .015-.036.039.039 0 0 1 .038-.007c.159.057.217.202.23.31a.154.154 0 0 0 .046-.101.04.04 0 0 1 .074-.02.587.587 0 0 0 .224.225l-.047-.116a.04.04 0 0 1 .01-.045.04.04 0 0 1 .046-.006c.078.043.14.092.206.143.08.063.162.127.277.182.113.054.19.044.233.026a.143.143 0 0 0 .08-.074c.016-.043.02-.104-.005-.144-.016-.027-.044-.041-.083-.044zM8.026 3.96c.003.001.3.097.569.113a.04.04 0 0 1 .034.024.041.041 0 0 1-.006.041l-.009.012c.053-.008.12-.015.186-.016a7.475 7.475 0 0 1-.095-.117 1.42 1.42 0 0 1-.55-.118c-.051-.026-.141-.07-.184-.048-.008.004-.02.022-.018.044.003.029.029.052.073.065zM8.919 3.377c-.004 0-.008 0-.011.002-.017.005-.026.025-.029.04-.002.02.003.047.025.062.03.02.061.007.08-.011.005-.006.032-.036.012-.068a.212.212 0 0 0-.077-.025z"/>
            <path d="M8.53 4.35c.02.046.049.082.074.107a.147.147 0 0 1 .045-.058.135.135 0 0 1 .111-.02h.007l.004.003c.002 0 .004 0 .006.002l.003.002c.02.01.037.023.046.045.03.07-.023.21-.07.308l.082-.043a.039.039 0 0 1 .038 0 .04.04 0 0 1 .02.033l.012.18c.062-.066.11-.139.111-.14a.04.04 0 0 1 .039-.017.04.04 0 0 1 .032.028l.045.145c.063-.059.118-.138.119-.14a.041.041 0 0 1 .033-.016.04.04 0 0 1 .033.019l.068.11.097-.198a.038.038 0 0 1 .038-.022.04.04 0 0 1 .035.026l.089.246.173-.111a.039.039 0 0 1 .043 0 .654.654 0 0 0 .198.075l-.015-.158a.04.04 0 0 1 .01-.031.04.04 0 0 1 .03-.014l.098-.001a.879.879 0 0 1-.053-.06.04.04 0 0 1-.008-.028.778.778 0 0 1-.277-.06l-.06.094a.04.04 0 0 1-.056.012l-.229-.157-.042.117a.04.04 0 0 1-.03.026.039.039 0 0 1-.037-.014 4.926 4.926 0 0 0-.138-.154.794.794 0 0 1-.153.12.04.04 0 0 1-.033.002.04.04 0 0 1-.024-.024l-.062-.171a.04.04 0 0 1 .023-.052.04.04 0 0 1 .05.024l.047.125a.87.87 0 0 0 .122-.108.04.04 0 0 1 .054-.005c.023.02.086.09.13.14l.036-.102a.04.04 0 0 1 .06-.02l.237.163.057-.09a.04.04 0 0 1 .051-.014.7.7 0 0 0 .292.068.523.523 0 0 1-.048-.216.885.885 0 0 1-.206-.128l-.029.071a.04.04 0 0 1-.06.017l-.114-.084-.011.088a.04.04 0 0 1-.023.03.039.039 0 0 1-.037-.001.794.794 0 0 1-.155-.125.04.04 0 0 1 .004-.057.04.04 0 0 1 .056.003.555.555 0 0 0 .084.075l.012-.09a.04.04 0 0 1 .023-.032.04.04 0 0 1 .04.004l.127.094.03-.076a.04.04 0 0 1 .064-.014.814.814 0 0 0 .273.17 2.04 2.04 0 0 1-.032-.25V4.02a.778.778 0 0 1-.224-.189c0 .05-.005.1-.017.133a.04.04 0 0 1-.023.023.04.04 0 0 1-.033-.003c-.005-.002-.091-.053-.156-.126a.534.534 0 0 1-.035.102.04.04 0 0 1-.052.015.632.632 0 0 1-.119-.08.68.68 0 0 1-.025.143.04.04 0 0 1-.023.023.04.04 0 0 1-.032-.002 1.295 1.295 0 0 1-.137-.09l-.018.068a.04.04 0 0 1-.055.026.581.581 0 0 1-.182-.135.04.04 0 0 1 .006-.057.039.039 0 0 1 .055.006.43.43 0 0 0 .112.09l.02-.078a.04.04 0 0 1 .028-.029.039.039 0 0 1 .038.01.9.9 0 0 0 .125.091c.008-.05.014-.122.017-.168a.04.04 0 0 1 .03-.038.04.04 0 0 1 .044.02c.022.041.074.081.114.106.01-.034.024-.085.034-.129a.04.04 0 0 1 .035-.03.039.039 0 0 1 .04.023.399.399 0 0 0 .127.138 1.25 1.25 0 0 0-.005-.195.04.04 0 0 1 .075-.022c.08.165.221.256.294.294.04-.445-.088-.615-.09-.617a.041.041 0 0 1-.007-.033.04.04 0 0 1 .019-.027.355.355 0 0 0 .14-.193c-.16.159-.416.22-.54.24l.06.076a.04.04 0 0 1 .007.041.04.04 0 0 1-.033.025.79.79 0 0 1-.339-.03l.026.048a.04.04 0 0 1-.001.04c-.008.013-.021.021-.035.02a.781.781 0 0 1-.323-.104.146.146 0 0 1-.042.082.147.147 0 0 1-.104.044.133.133 0 0 1-.075-.023.143.143 0 0 1-.059-.14.126.126 0 0 1 .084-.107c.06-.017.127.017.212.062a.955.955 0 0 0 .237.095l-.05-.092a.04.04 0 0 1 .01-.05.04.04 0 0 1 .052 0c0 .001.1.084.323.08l-.056-.07a.041.041 0 0 1-.006-.042.04.04 0 0 1 .033-.024c.004 0 .33-.034.53-.199-.066.02-.116.017-.12.017a.04.04 0 0 1-.028-.015.429.429 0 0 0-.233-.165.46.46 0 0 1-.094.157.04.04 0 0 1-.033.013.04.04 0 0 1-.03-.02.314.314 0 0 0-.231-.153c.007.085-.052.156-.091.185a.04.04 0 0 1-.05-.002c-.17-.155-.302-.11-.355-.078a.121.121 0 0 1-.002.1c-.081.168-.584.201-.684.206a.039.039 0 0 1-.033-.014.04.04 0 0 1-.007-.036.11.11 0 0 0-.014-.085.114.114 0 0 0-.07-.054c-.027-.005-.077-.002-.106.032-.035.038-.037.108-.007.204.053.17.217.34.319.432a.44.44 0 0 1 0-.041.04.04 0 0 1 .029-.037.039.039 0 0 1 .043.016c.034.05.074.083.104.103l.02-.13a.04.04 0 0 1 .035-.033.04.04 0 0 1 .041.025c.036.089.263.367.348.466a.04.04 0 0 1 .005.046.04.04 0 0 1-.04.02c-.145-.02-.358.029-.36.029a.04.04 0 0 1-.043-.018.041.041 0 0 1 .003-.047l.03-.037a2.831 2.831 0 0 1-.477-.098l-.067.184.18-.019a.039.039 0 0 1 .035.016.04.04 0 0 1 .005.04l-.034.084.148-.04a.04.04 0 0 1 .047.024c.02.05.044.084.063.104l.041-.093a.038.038 0 0 1 .037-.024c.016 0 .03.01.036.025zM8.017 6.413c.156.106.282-.015.35-.109a.902.902 0 0 1-.311-.395.887.887 0 0 1-.044-.155 3.82 3.82 0 0 1-.414-.392.237.237 0 0 1-.032.058.167.167 0 0 1-.015.124.147.147 0 0 1-.01.103c.027.042.032.083.014.123a.161.161 0 0 1-.015.026c.022.028.058.092.058.22 0 .086.032.138.055.164a.08.08 0 0 1 .045-.02c.05-.006.091.038.147.098.044.047.099.105.172.155zM7.239 5.319H7.23a.857.857 0 0 1-.157-.016c-.005.014.005.053.015.06.01.009.017.022.017.035a.041.041 0 0 1-.016.033c-.007.005-.027.023-.028.04 0 .018.02.036.032.045a.04.04 0 0 1 .006.059c-.005.006-.02.029-.017.048 0 .004.002.016.023.03a.04.04 0 0 1 .01.058s-.012.016-.007.033c.004.018.027.032.045.04a.352.352 0 0 0 .131.029h.005a.327.327 0 0 0 .122-.017c.036-.014.06-.034.072-.059.003-.008.01-.024-.02-.061a.04.04 0 0 1-.002-.051s.026-.037.01-.067a.04.04 0 0 1 .007-.048c.002-.003.027-.032.007-.085a.04.04 0 0 1 .01-.044.147.147 0 0 0 .037-.097 1.345 1.345 0 0 1-.015-.018.704.704 0 0 1-.278.053zM7.601 2.507c-.16.088-.502.363-.512 1.116l.01 1.269c0 .002.002.003.003.005.02.04.01.091-.001.127.099.036.223.021.275.008a.158.158 0 0 1 .017-.14c-.005-1.513.137-2.157.208-2.385z"/>
            <path d="M7.618 5.05a.143.143 0 0 0-.095-.131c-.01-.003-.043-.013-.059.008-.028.038-.018.065-.008.09.005.015.01.03.007.047-.006.022-.025.031-.032.034a.562.562 0 0 1-.4-.017.04.04 0 0 1-.017-.053c.015-.031.026-.077.018-.093-.001-.001-.003-.005-.014-.006a.224.224 0 0 0-.032-.003c-.048 0-.093.016-.117.042-.02.021-.025.048-.018.083.023.115.165.185.38.187.151 0 .282-.037.347-.103a.12.12 0 0 0 .04-.085zM7.277 6.007a.039.039 0 0 1 .039-.015c.028.006.096.02.135-.01.014-.011.017-.04.007-.06-.004-.006-.015-.026-.056-.01-.04.016-.095.032-.13 0a.062.062 0 0 1-.016-.022l-.031-.003a.062.062 0 0 1-.016.025c-.035.032-.091.016-.13 0-.042-.016-.053.004-.056.01-.011.02-.008.049.006.06.04.03.108.016.13.011a.044.044 0 0 1 .042.014c.01.013.013.029.006.042a.951.951 0 0 1-.085.144c.05.074.092.205-.008.322a.042.042 0 0 1-.033.014.04.04 0 0 1-.03-.019c-.006-.008-.026-.033-.049-.037-.006-.002-.017-.002-.032.009-.01.007-.016.031-.008.057.016.048.065.074.133.07.016 0 .033.01.039.026a.04.04 0 0 1-.011.046l-.065.056.106.026a.04.04 0 0 1 .029.029s.016.058.047.106a.427.427 0 0 0 .048-.106.04.04 0 0 1 .028-.029l.106-.026-.065-.056a.04.04 0 0 1-.01-.046.039.039 0 0 1 .038-.025c.068.003.117-.023.133-.07.009-.027.003-.051-.008-.058-.015-.011-.026-.01-.032-.01-.023.006-.044.032-.048.038a.04.04 0 0 1-.063.005c-.101-.117-.058-.248-.009-.322a.948.948 0 0 1-.085-.144.04.04 0 0 1 .004-.042z"/>
        </g>
        <path d="M12.856 3.38a.175.175 0 0 0-.145-.08.163.163 0 0 0-.134.044.177.177 0 0 0-.045.088 2.399 2.399 0 0 1-.23-.16c-.264-.197-.661-.493-1.052-.544-.316-.04-.676.024-.874.21a.632.632 0 0 0 .004-.043v-.002a.04.04 0 0 0-.006-.02l-.003-.004a.039.039 0 0 0-.017-.014.038.038 0 0 0-.023 0h-.004a.039.039 0 0 0-.018.013.307.307 0 0 1-.237.13c-.149-.18-.306-.186-.312-.186-.023.002-.038.014-.04.035a.283.283 0 0 1-.052.114c-.13-.166-.315-.15-.323-.149a.04.04 0 0 0-.03.02.041.041 0 0 0-.002.037c.024.053-.005.099-.028.125-.257-.21-.456-.04-.458-.037a.04.04 0 0 0-.006.053c.02.028.016.044.01.054-.041.086-.343.142-.57.159a.197.197 0 0 0-.028-.094.193.193 0 0 0-.122-.09.193.193 0 0 0-.181.055c-.055.062-.063.157-.024.283.061.197.245.382.353.477a.885.885 0 0 1-.077-.033c-.064-.03-.17-.083-.248-.042-.039.02-.064.073-.06.124.003.025.017.082.09.119l-.088.243a.04.04 0 0 0 .006.039.039.039 0 0 0 .035.015l.177-.018-.04.097a.04.04 0 0 0 .008.042c.01.011.025.016.04.012l.191-.051c.05.103.116.14.12.141.009.005.02.006.03.002a.04.04 0 0 0 .024-.021l.03-.069a.43.43 0 0 0 .087.092 6.06 6.06 0 0 1-.04.033c-.132.11-.315.261-.446.52-.066.13-.117.327-.102.538a3.326 3.326 0 0 1-.408-.41c.016-.011.033-.022.046-.034a.202.202 0 0 0 .063-.143.223.223 0 0 0-.149-.208.152.152 0 0 0-.076-.006c-.002-1.758.195-2.297.235-2.387a.041.041 0 0 0-.006-.043.04.04 0 0 0-.041-.012c-.026.007-.637.201-.65 1.229l.009 1.225c-.083-.009-.162.015-.208.065a.168.168 0 0 0-.038.154c.02.1.1.175.223.216a.13.13 0 0 0-.003.045c.002.02.008.044.02.065a.125.125 0 0 0-.031.076c0 .031.011.06.036.087a.137.137 0 0 0-.015.076c.003.018.01.042.03.065a.118.118 0 0 0-.002.065.126.126 0 0 0 .046.068c-.061-.011-.104.017-.124.053-.03.054-.018.127.027.162.037.029.08.038.12.036a.348.348 0 0 1-.055.078.04.04 0 0 0-.005.059c.004.004.09.103.04.206a.14.14 0 0 0-.062-.03.119.119 0 0 0-.093.02c-.042.03-.058.092-.038.151a.18.18 0 0 0 .116.113l-.055.049a.04.04 0 0 0 .016.07l.16.04c.011.035.04.103.086.15A.05.05 0 0 0 7.242 7a.04.04 0 0 0 .028-.011.422.422 0 0 0 .087-.152l.159-.04a.04.04 0 0 0 .029-.03.04.04 0 0 0-.013-.04l-.056-.048a.18.18 0 0 0 .117-.113c.02-.06.004-.12-.038-.15a.119.119 0 0 0-.093-.021.14.14 0 0 0-.061.03c-.05-.102.035-.202.039-.207a.04.04 0 0 0-.005-.058.346.346 0 0 1-.055-.078c.04 0 .083-.007.12-.036.008-.006.013-.015.02-.023.002.177.112.247.117.25a.04.04 0 0 0 .054-.014c.01-.015.015-.018.015-.018.014 0 .053.042.082.073.046.05.105.112.184.166a.29.29 0 0 0 .165.056c.143 0 .25-.123.296-.186a1.444 1.444 0 0 0 .316.148l.044.136c.05.145.101.295.08.409-.025.147-.254.148-.372.128a.25.25 0 0 0-.219.062.268.268 0 0 0-.078.22c.005.058.034.085.057.098.053.028.124.007.163-.01.09.08.196.047.261.005.04.034.084.051.132.052h.005a.279.279 0 0 0 .164-.062c.153.063.241.016.256.006.125-.107.105-.3.088-.383a.545.545 0 0 0 .343-.315.041.041 0 0 0-.009-.041.04.04 0 0 0-.039-.012c-.079.022-.141.007-.171-.04-.04-.064-.014-.169.066-.267a.8.8 0 0 0 .049-.067c.198-.045.367-.123.546-.206.148-.07.301-.14.484-.198a.854.854 0 0 1 .15-.033c-.016.219.095.363.203.501.03.038.06.077.087.117.116.17.093.529.084.561a.212.212 0 0 1-.196.084.34.34 0 0 0-.261.078.208.208 0 0 0-.075.155c0 .048.023.072.042.084.058.035.153-.003.204-.027a.225.225 0 0 0 .141.05.262.262 0 0 0 .142-.044c.107.068.218.028.28-.015.078.043.14.035.18.019a.184.184 0 0 0 .036-.02l.005.006c.042.037.12.017.17-.002a.138.138 0 0 0 .077.064c.073.023.158-.017.2-.043.052.04.103.058.154.05a.181.181 0 0 0 .1-.052.375.375 0 0 0 .107.053c.021.007.04.01.056.01a.111.111 0 0 0 .096-.049c.046-.068.022-.183-.03-.249a.249.249 0 0 1-.043-.184.192.192 0 0 1 .087-.133c.107-.07.178-.164.18-.24a.084.084 0 0 0-.034-.073.132.132 0 0 0-.062-.02c-.047-.006-.106-.014-.18-.155-.067-.125.011-.368.095-.625.048-.147.097-.299.128-.45.077-.375-.108-.677-.175-.77.186-.187.264-.366.232-.532-.035-.184-.203-.31-.337-.362-.16-.063-.43-.03-.692.002-.204.025-.396.048-.512.023-.044-.01-.075-.029-.092-.057-.03-.05-.014-.116-.014-.117a.041.041 0 0 0-.008-.036.039.039 0 0 0-.032-.015.276.276 0 0 0-.174.082.1.1 0 0 1-.001-.033c.01-.078.098-.146.099-.146a.04.04 0 0 0-.003-.067c-.162-.1-.313-.026-.39.043a.182.182 0 0 1-.05-.132.146.146 0 0 1 .076-.128c.03-.016.055-.02.078-.01.038.014.063.061.07.078a.04.04 0 0 0 .023.024.038.038 0 0 0 .034-.003c.088-.053.116-.163.125-.224a.183.183 0 0 1 .12.068c.081.104.048.286.048.288a.04.04 0 0 0 .012.037c.01.01.024.013.037.01a.33.33 0 0 0 .246-.307c.137.087.128.267.127.275a.04.04 0 0 0 .017.036.04.04 0 0 0 .038.004.23.23 0 0 0 .122-.112c.125.167.298.225.307.228a.04.04 0 0 0 .04-.011.04.04 0 0 0 .008-.043l-.039-.096.094.071c.082.065.168.132.291.191.14.066.238.051.297.028a.221.221 0 0 0 .124-.12c.022-.06.03-.149-.012-.217zm-.062.188a.143.143 0 0 1-.08.074c-.044.018-.12.028-.233-.026a1.427 1.427 0 0 1-.277-.182 1.482 1.482 0 0 0-.206-.143.04.04 0 0 0-.046.006.04.04 0 0 0-.01.045l.047.116a.587.587 0 0 1-.223-.225.04.04 0 0 0-.045-.02.04.04 0 0 0-.03.04s0 .056-.045.1a.363.363 0 0 0-.231-.309.039.039 0 0 0-.038.007.04.04 0 0 0-.015.036c.001.008.02.188-.13.266a.438.438 0 0 0-.07-.285.275.275 0 0 0-.217-.102.037.037 0 0 0-.029.01.04.04 0 0 0-.012.029c0 .001-.005.11-.059.172a.198.198 0 0 0-.09-.078.166.166 0 0 0-.143.015.226.226 0 0 0-.119.197.255.255 0 0 0 .113.222.04.04 0 0 0 .05-.007c.005-.006.118-.132.266-.08a.3.3 0 0 0-.084.157.184.184 0 0 0 .039.14c.008.01.016.015.032.016a.04.04 0 0 0 .032-.017s.043-.06.107-.085c0 .034.006.078.03.118a.21.21 0 0 0 .144.095c.128.027.327.003.537-.022.252-.03.512-.062.655-.007.114.045.258.15.287.302.028.145-.05.308-.234.483a.04.04 0 0 0-.003.055c.002.003.264.326.18.733-.03.146-.078.296-.125.441-.093.286-.174.533-.09.689.093.176.185.188.24.196l.026.004c.008.016-.02.102-.143.181a.27.27 0 0 0-.122.188.331.331 0 0 0 .06.248c.038.049.045.123.025.152-.004.006-.015.023-.062.008a.262.262 0 0 1-.106-.06.04.04 0 0 0-.033-.013.04.04 0 0 0-.03.019s-.028.044-.073.05c-.034.005-.072-.012-.113-.05a.04.04 0 0 0-.05-.003c-.024.018-.106.065-.156.049-.007-.003-.03-.01-.043-.052a.04.04 0 0 0-.022-.024.039.039 0 0 0-.032 0c-.048.023-.109.037-.12.032 0 0-.002-.006.003-.024.027-.096.139-.119.213-.134a.853.853 0 0 0 .063-.014c.073-.015.224-.045.205-.239-.004-.04-.003-.078-.002-.115.004-.119.007-.231-.177-.366-.068-.05-.133-.095-.196-.138-.144-.098-.267-.182-.38-.297a.763.763 0 0 0-.829-.208c-.187.06-.342.132-.493.202-.151.07-.296.136-.455.18.126-.242.194-.564.18-.719a.04.04 0 0 0-.043-.036.04.04 0 0 0-.036.044c.016.177-.092.611-.268.826-.104.126-.132.268-.073.362.037.059.1.087.178.087a.465.465 0 0 1-.29.21.04.04 0 0 0-.03.05c0 .003.066.237-.047.335-.003.002-.072.037-.202-.024a.04.04 0 0 0-.044.008c-.001 0-.065.062-.133.058a.14.14 0 0 1-.102-.052.04.04 0 0 0-.054-.003c-.005.004-.117.099-.2.004a.04.04 0 0 0-.048-.01c-.032.018-.091.036-.116.023-.003-.002-.013-.008-.016-.035a.186.186 0 0 1 .054-.153.172.172 0 0 1 .151-.041c.208.035.432-.011.464-.194.024-.135-.03-.295-.084-.45a1.222 1.222 0 0 1-.083-.333c-.003-.2.038-.388.039-.39a.04.04 0 0 0-.03-.048.04.04 0 0 0-.047.03c-.002.008-.045.2-.041.41 0 .04.009.084.019.129-.301-.113-.502-.29-.595-.525a.949.949 0 0 1 .039-.744c.123-.243.291-.382.426-.494.063-.052.12-.1.16-.149a.962.962 0 0 1-.12.31.04.04 0 0 0 .003.045.04.04 0 0 0 .042.014c.034-.011.096-.042.141-.065L8.834 5c0 .015.01.028.024.034.013.006.03.004.04-.006.054-.044.104-.104.14-.149l.039.127a.04.04 0 0 0 .025.026.039.039 0 0 0 .035-.005.78.78 0 0 0 .146-.147l.075.122c.008.012.022.02.036.018a.04.04 0 0 0 .034-.022l.087-.179.074.205a.04.04 0 0 0 .038.027.04.04 0 0 0 .02-.006l.195-.125c.102.058.25.082.258.083a.04.04 0 0 0 .033-.01.04.04 0 0 0 .012-.033l-.016-.169.172-.002a.04.04 0 0 0 .039-.036.04.04 0 0 0-.03-.044.36.36 0 0 1-.098-.088h.01c.098.007 1.776.133 2.144-.14.204-.15.19-.288.163-.357-.055-.141-.256-.232-.456-.206a5.19 5.19 0 0 0-.254.042c-.251.046-.536.098-.769.04-.091-.023-.169-.053-.238-.08-.116-.044-.2-.077-.265-.037a.143.143 0 0 0-.06.081.208.208 0 0 1-.026-.249.041.041 0 0 0-.006-.047c-.002-.002-.232-.253-.124-.528.097-.248.48-.387.91-.332.37.048.757.337 1.013.528.162.12.249.184.308.192a.039.039 0 0 0 .032-.01.04.04 0 0 0 .012-.033s-.002-.054.028-.084c.016-.016.04-.023.072-.021.039.003.067.017.083.043.026.04.02.102.005.145zm-1.246 3.9c-.039.013-.082.005-.129-.027a.04.04 0 0 0-.048.003c-.004.004-.118.102-.226.013a.04.04 0 0 0-.051 0c-.012.011-.119.098-.225-.003a.04.04 0 0 0-.046-.006c-.054.03-.129.054-.15.042-.002-.002-.003-.013-.003-.015 0-.043.026-.075.048-.094a.262.262 0 0 1 .198-.059c.15.02.26-.084.28-.132.017-.041.046-.435-.092-.64a2.235 2.235 0 0 0-.09-.12c-.105-.135-.204-.263-.186-.457a.69.69 0 0 1 .52.226 1.9 1.9 0 0 0 .257.213c-.036.037-.092.107-.097.177a.125.125 0 0 0 .032.092c.057.065.123.062.166.06h.025a.906.906 0 0 1-.08.124c-.079.109-.13.185-.121.244.006.04.021.1.036.159.015.056.036.14.035.156a.096.096 0 0 1-.053.044zm.167-.556c.076-.105.115-.163.092-.208-.023-.047-.07-.045-.104-.043-.037.001-.072.003-.105-.033a.043.043 0 0 1-.01-.034c.002-.046.053-.105.083-.135l.068.048c.063.042.127.086.194.135.15.11.148.186.145.3a.946.946 0 0 0 .002.124c.011.112-.052.134-.141.152a.664.664 0 0 0-.032.007l-.032.007a.43.43 0 0 0-.213.092 4.902 4.902 0 0 0-.02-.076c-.014-.057-.029-.115-.034-.151-.004-.03.068-.13.107-.185zM7.698 6.16a.08.08 0 0 0-.045.02.241.241 0 0 1-.055-.164c0-.128-.035-.192-.058-.22a.162.162 0 0 0 .015-.026c.018-.04.013-.081-.015-.123a.147.147 0 0 0 .01-.103.167.167 0 0 0 .016-.124.235.235 0 0 0 .032-.058c.182.205.4.38.414.392.01.052.024.104.044.155a.902.902 0 0 0 .31.395c-.067.094-.193.215-.35.109a1.007 1.007 0 0 1-.17-.155c-.057-.06-.098-.104-.148-.098zm-.332.355a.04.04 0 0 0 .064-.005c.004-.006.025-.032.047-.037.007-.002.018-.002.033.009.01.007.017.031.008.057-.016.048-.065.074-.133.07a.039.039 0 0 0-.039.026.04.04 0 0 0 .011.046l.065.056-.106.026a.04.04 0 0 0-.028.029s-.016.058-.048.106a.427.427 0 0 1-.047-.106.04.04 0 0 0-.03-.029l-.105-.026.065-.056a.04.04 0 0 0 .01-.046c-.005-.016-.022-.027-.038-.025-.068.003-.117-.023-.133-.07-.008-.027-.003-.051.008-.058.015-.011.026-.01.032-.01.023.005.043.03.049.039a.04.04 0 0 0 .03.018.042.042 0 0 0 .033-.014c.1-.117.057-.248.008-.322a.948.948 0 0 0 .085-.143c.007-.014.003-.03-.006-.043a.044.044 0 0 0-.042-.014c-.022.005-.09.02-.13-.011-.014-.011-.017-.04-.006-.06.003-.006.014-.026.055-.01.04.016.096.032.13 0a.062.062 0 0 0 .017-.025c.01.002.02.002.031.003a.062.062 0 0 0 .015.022c.036.032.092.016.13 0 .042-.016.053.004.057.01.01.02.007.049-.007.06-.04.03-.108.016-.135.01a.039.039 0 0 0-.04.015.041.041 0 0 0-.003.043.951.951 0 0 0 .085.143c-.05.074-.092.205.008.322zm.129-1.134a.04.04 0 0 0-.01.044c.02.053-.005.082-.007.085a.04.04 0 0 0-.007.048c.016.03-.01.067-.01.067a.041.041 0 0 0 .001.05c.031.038.024.054.02.062-.01.025-.035.045-.07.059a.327.327 0 0 1-.123.017h-.005a.353.353 0 0 1-.132-.029c-.017-.008-.04-.022-.044-.04-.005-.017.006-.033.006-.033a.04.04 0 0 0-.01-.058c-.02-.014-.021-.026-.022-.03-.002-.02.012-.042.017-.048a.041.041 0 0 0-.006-.059c-.012-.009-.032-.027-.032-.044 0-.018.02-.036.027-.041a.04.04 0 0 0 .017-.033.043.043 0 0 0-.017-.034c-.01-.008-.02-.047-.015-.06.048.009.1.014.157.015h.009c.107 0 .201-.02.278-.053l.014.018a.146.146 0 0 1-.036.097zm-.264-.143c-.215-.002-.357-.072-.38-.187-.007-.035-.001-.062.018-.083.024-.026.07-.042.118-.042l.03.003c.012.001.014.005.015.006.008.016-.003.062-.018.093a.04.04 0 0 0 .018.053.562.562 0 0 0 .4.017c.006-.003.025-.012.03-.034.005-.017 0-.032-.006-.046-.01-.026-.02-.053.008-.091.016-.02.05-.011.059-.008a.143.143 0 0 1 .095.131c0 .03-.013.059-.04.086-.065.065-.196.102-.347.102zm.145-.206a.527.527 0 0 1-.275-.008c.012-.036.021-.087 0-.127l-.003-.005-.009-1.27c.01-.752.352-1.027.512-1.115-.071.228-.213.872-.208 2.385a.158.158 0 0 0-.017.14zm1.081-.683-.041.093a.322.322 0 0 1-.063-.104.04.04 0 0 0-.047-.024l-.148.04.034-.084a.04.04 0 0 0-.005-.04.039.039 0 0 0-.036-.016l-.179.018.067-.183c.079.023.275.077.476.098l-.03.037a.041.041 0 0 0-.002.047.04.04 0 0 0 .042.018c.002 0 .215-.05.36-.029a.04.04 0 0 0 .04-.02.04.04 0 0 0-.004-.046c-.085-.1-.312-.377-.348-.466a.04.04 0 0 0-.041-.025.04.04 0 0 0-.035.034l-.02.129a.394.394 0 0 1-.104-.103.039.039 0 0 0-.044-.016.04.04 0 0 0-.028.037v.04c-.102-.092-.266-.26-.32-.432-.029-.095-.027-.165.007-.203.03-.034.08-.037.106-.032a.114.114 0 0 1 .07.054.11.11 0 0 1 .015.085.04.04 0 0 0 .007.035c.008.01.02.016.033.015.1-.005.602-.038.684-.206a.121.121 0 0 0 .002-.1c.053-.031.185-.077.355.078a.04.04 0 0 0 .05.002c.039-.03.098-.1.09-.185.06.007.162.038.233.154a.04.04 0 0 0 .03.018.04.04 0 0 0 .032-.012.46.46 0 0 0 .094-.157.429.429 0 0 1 .233.165.04.04 0 0 0 .028.015c.004 0 .054.003.12-.017-.201.165-.526.198-.53.198a.04.04 0 0 0-.034.025.04.04 0 0 0 .006.041l.057.07c-.224.005-.323-.078-.324-.079a.04.04 0 0 0-.05 0 .04.04 0 0 0-.01.05l.049.092a.954.954 0 0 1-.237-.096c-.085-.044-.153-.079-.212-.06a.126.126 0 0 0-.084.105.143.143 0 0 0 .06.141.133.133 0 0 0 .074.023.148.148 0 0 0 .104-.044.145.145 0 0 0 .042-.082c.09.046.198.098.322.103.014.002.028-.006.036-.019a.04.04 0 0 0 .001-.04l-.026-.049a.79.79 0 0 0 .339.03.04.04 0 0 0 .032-.024.041.041 0 0 0-.006-.04l-.06-.076c.124-.021.38-.082.54-.241a.355.355 0 0 1-.14.192.04.04 0 0 0-.02.028.041.041 0 0 0 .009.033c.001.001.13.172.09.617a.678.678 0 0 1-.295-.294.04.04 0 0 0-.046-.021.04.04 0 0 0-.029.043c.006.052.01.136.005.195a.399.399 0 0 1-.127-.138.039.039 0 0 0-.04-.024.04.04 0 0 0-.035.031c-.01.044-.024.095-.034.13a.346.346 0 0 1-.114-.106.04.04 0 0 0-.044-.02.04.04 0 0 0-.03.036 1.989 1.989 0 0 1-.017.169.9.9 0 0 1-.125-.092.039.039 0 0 0-.038-.009.04.04 0 0 0-.027.029l-.02.078a.43.43 0 0 1-.113-.09.04.04 0 0 0-.056-.006.04.04 0 0 0-.005.057.58.58 0 0 0 .183.135.04.04 0 0 0 .054-.026l.018-.067c.064.048.133.087.136.089a.04.04 0 0 0 .033.002.04.04 0 0 0 .023-.023c.012-.03.02-.09.025-.144.054.048.115.08.119.081a.04.04 0 0 0 .052-.015.54.54 0 0 0 .035-.102c.064.073.15.124.156.126a.04.04 0 0 0 .033.003.04.04 0 0 0 .023-.023.433.433 0 0 0 .016-.133.779.779 0 0 0 .225.189v.002c0 .008.009.143.032.25a.813.813 0 0 1-.273-.17.04.04 0 0 0-.064.014l-.03.076-.128-.094a.04.04 0 0 0-.039-.004.04.04 0 0 0-.023.032l-.012.09a.554.554 0 0 1-.085-.075.04.04 0 0 0-.056-.003.04.04 0 0 0-.003.057c.056.064.15.122.155.125a.039.039 0 0 0 .037.002.04.04 0 0 0 .022-.031l.012-.088.114.085a.04.04 0 0 0 .06-.018l.029-.071a.884.884 0 0 0 .205.128c0 .025.005.132.049.216a.699.699 0 0 1-.292-.068.04.04 0 0 0-.05.014l-.058.09-.238-.162a.038.038 0 0 0-.034-.005.04.04 0 0 0-.025.024l-.037.101a1.92 1.92 0 0 0-.129-.139.04.04 0 0 0-.054.005s-.056.06-.122.108l-.046-.125a.04.04 0 0 0-.051-.024.04.04 0 0 0-.024.052l.063.171a.04.04 0 0 0 .024.024.04.04 0 0 0 .033-.003.795.795 0 0 0 .153-.12c.037.04.098.11.138.155.01.011.023.016.037.014a.04.04 0 0 0 .03-.026L9.5 4.51l.229.157a.04.04 0 0 0 .03.006.04.04 0 0 0 .025-.018l.06-.095a.777.777 0 0 0 .277.061c0 .01.003.02.009.027a.91.91 0 0 0 .053.06l-.099.002a.04.04 0 0 0-.029.014.04.04 0 0 0-.01.03l.015.158a.655.655 0 0 1-.198-.074.039.039 0 0 0-.043 0l-.173.11-.089-.245a.04.04 0 0 0-.035-.026.038.038 0 0 0-.038.022l-.097.198-.068-.11a.04.04 0 0 0-.033-.02.041.041 0 0 0-.033.018s-.056.08-.12.14L9.09 4.78a.04.04 0 0 0-.032-.028.04.04 0 0 0-.038.017c0 .001-.05.073-.111.14l-.012-.18a.04.04 0 0 0-.02-.033.039.039 0 0 0-.038 0l-.082.043c.047-.099.1-.237.07-.309a.084.084 0 0 0-.046-.044l-.004-.003-.005-.001-.004-.002h-.004l-.003-.001a.134.134 0 0 0-.111.02.147.147 0 0 0-.045.057.328.328 0 0 1-.074-.106.04.04 0 0 0-.036-.025.039.039 0 0 0-.037.024zm-.301-.45c.214.105.477.116.55.118l.094.117c-.065 0-.133.008-.186.016l.01-.012a.041.041 0 0 0 .005-.041.04.04 0 0 0-.034-.024 2.7 2.7 0 0 1-.569-.113c-.044-.013-.07-.036-.073-.065-.002-.022.01-.04.018-.044.043-.023.133.022.185.048zm.374.022a.04.04 0 0 0 .017-.026l.011-.075c.024.035.053.074.083.113a1.613 1.613 0 0 1-.11-.012zm-.035.043a1.572 1.572 0 0 1-.09-.028.124.124 0 0 0-.006-.056.298.298 0 0 1-.004-.016.765.765 0 0 0 .1.1zm.488-.495c-.018.019-.05.032-.079.012-.023-.015-.027-.042-.025-.062.003-.015.011-.035.029-.04a.04.04 0 0 1 .011-.002c.019 0 .046.01.077.025.02.032-.007.062-.013.067zm1.508.604a.04.04 0 0 0 .038.003.04.04 0 0 0 .022-.031c.007-.051.019-.082.036-.093.032-.02.109.01.197.044.067.026.151.059.247.082.25.063.543.01.802-.038.087-.016.171-.031.25-.041.164-.022.33.048.372.155.032.081-.017.174-.136.263-.332.245-1.919.136-2.08.124-.044-.041-.06-.127-.065-.183a.606.606 0 0 0 .054.014.04.04 0 0 0 .03-.014.041.041 0 0 0 .007-.04 1.282 1.282 0 0 1-.044-.26c.01.002.022.001.03-.005a.04.04 0 0 0 .02-.03c.046-.404-.035-.616-.078-.695a.338.338 0 0 0 .03-.026.687.687 0 0 0 .156.4.296.296 0 0 0 .112.371z" fill="#464655"/>
        <path d="M6.514 1.996c-.015-.325-.09-.85-.333-.862a.249.249 0 0 0-.207.082.04.04 0 0 1-.034.016l-.092-.005.016.062a.041.041 0 0 1-.013.041c-.005.005-.136.121-.056.268.06.113.256.166.4.205.064.017.119.032.155.05.064.032.12.085.164.143z" fill="#FFD250"/>
        <path d="M6.193 1.053a.343.343 0 0 0-.263.098l-.13-.008a.04.04 0 0 0-.042.05l.025.094c-.064.065-.14.2-.057.35.078.143.297.201.457.244.06.016.114.03.143.044.094.046.17.152.21.235a.04.04 0 0 0 .077-.017c0-.044.005-1.07-.42-1.09zm.01.75c-.145-.04-.345-.092-.407-.205-.08-.147.053-.263.058-.268a.04.04 0 0 0 .013-.04l-.017-.063.095.005a.041.041 0 0 0 .034-.016.255.255 0 0 1 .21-.082c.247.012.324.537.34.862a.501.501 0 0 0-.168-.143c-.036-.018-.092-.033-.157-.05z" fill="#464655"/>
        <path d="M13.14 1.996c.016-.325.092-.85.334-.862a.249.249 0 0 1 .207.082.04.04 0 0 0 .034.016l.093-.005-.017.062a.041.041 0 0 0 .013.041c.005.005.136.121.057.268-.061.113-.257.166-.4.205-.065.017-.12.032-.156.05a.495.495 0 0 0-.164.143z" fill="#FFD250"/>
        <path d="M13.058 2.143a.04.04 0 0 0 .077.017.516.516 0 0 1 .21-.235.958.958 0 0 1 .143-.044c.16-.043.379-.101.457-.244.082-.149.007-.285-.057-.35l.025-.093a.04.04 0 0 0-.041-.051l-.131.008a.343.343 0 0 0-.263-.098c-.425.02-.42 1.046-.42 1.09zm.252-.29a.502.502 0 0 0-.168.143c.016-.325.093-.85.34-.862a.255.255 0 0 1 .21.082c.008.011.021.017.034.016l.095-.005-.017.062a.04.04 0 0 0 .013.041c.005.005.139.121.058.268-.062.113-.262.166-.408.205-.065.017-.12.032-.157.05z" fill="#464655"/>
        <path d="M13.14 8.004c.016.325.092.85.334.862a.249.249 0 0 0 .207-.083.04.04 0 0 1 .034-.015l.093.005-.017-.062a.041.041 0 0 1 .013-.041c.005-.005.136-.121.057-.268-.061-.113-.257-.166-.4-.205-.065-.017-.12-.032-.156-.05a.494.494 0 0 1-.164-.143z" fill="#FFD250"/>
        <path d="M13.478 8.947a.343.343 0 0 0 .263-.098l.13.008a.04.04 0 0 0 .042-.05l-.025-.094c.064-.065.14-.2.057-.35-.078-.143-.297-.201-.457-.244a.961.961 0 0 1-.143-.044.516.516 0 0 1-.21-.235.04.04 0 0 0-.076.017c0 .044-.006 1.07.419 1.09zm-.01-.75c.145.04.345.092.407.205.08.147-.052.263-.058.268a.04.04 0 0 0-.013.04l.017.063-.095-.005a.041.041 0 0 0-.034.016.255.255 0 0 1-.21.082c-.247-.012-.324-.537-.34-.862a.501.501 0 0 0 .168.143c.036.018.092.033.158.05z" fill="#464655"/>
        <path d="M6.514 8.004c-.015.325-.09.85-.333.862a.249.249 0 0 1-.207-.083.04.04 0 0 0-.034-.015l-.092.005.016-.062a.041.041 0 0 0-.013-.041c-.005-.005-.136-.121-.056-.268.06-.113.256-.166.4-.205.064-.017.119-.032.155-.05a.494.494 0 0 0 .164-.143z" fill="#FFD250"/>
        <path d="M6.613 7.857a.04.04 0 0 0-.077-.017.516.516 0 0 1-.21.235.958.958 0 0 1-.143.044c-.16.043-.379.101-.457.244-.082.149-.007.285.057.35l-.025.093a.04.04 0 0 0 .041.051l.131-.008a.343.343 0 0 0 .263.098c.425-.02.42-1.046.42-1.09zm-.252.29a.502.502 0 0 0 .168-.143c-.016.325-.093.85-.34.862a.255.255 0 0 1-.21-.082.042.042 0 0 0-.034-.016l-.095.005.017-.062a.04.04 0 0 0-.013-.041c-.005-.005-.139-.12-.058-.268.062-.113.262-.166.408-.205.065-.017.12-.032.157-.05z" fill="#464655"/>
    </g>
</svg>
